<?xml version="1.0" encoding="utf-8"?>
<!-- Generator: Adobe Illustrator 16.0.0, SVG Export Plug-In . SVG Version: 6.00 Build 0)  -->
<!DOCTYPE svg PUBLIC "-//W3C//DTD SVG 1.1//EN" "http://www.w3.org/Graphics/SVG/1.1/DTD/svg11.dtd">
<svg version="1.1" id="Layer_1" xmlns="http://www.w3.org/2000/svg" xmlns:xlink="http://www.w3.org/1999/xlink" x="0px" y="0px"
	 width="141.73px" height="141.73px" viewBox="0 0 141.73 141.73" enable-background="new 0 0 141.73 141.73" xml:space="preserve">
<g>
	<text transform="matrix(1 0 0 1 -284.7407 55.3115)" font-family="'EuclidFlexLight'" font-size="1.8939">6500at.</text>
	<text transform="matrix(1 0 0 1 -277.6758 21.8584)" font-family="'EuclidFlexLight'" font-size="1.8939">MALLKUS</text>
	<text transform="matrix(1 0 0 1 -284.8853 94.6494)" font-family="'EuclidFlexLight'" font-size="1.8939">5400at.</text>
	<text transform="matrix(1 0 0 1 -285.0132 124.5996)" font-family="'EuclidFlexLight'" font-size="1.8939">4200at.</text>
	<rect x="-287.955" y="21.774" width="0.156" height="114.689"/>
	<g>
		<polygon points="-294.621,123.563 -292.372,121.757 -292.259,121.666 -292.162,121.77 -289.971,124.118 -290.146,124.14 
			-288.068,120.687 -288.017,120.601 -287.97,120.688 -285.99,124.39 -288.069,120.742 -287.971,120.743 -289.955,124.251 
			-290.026,124.378 -290.131,124.272 -292.385,121.982 -292.175,121.995 -294.375,123.862 		"/>
	</g>
	<g>
		<polygon points="-294.621,93.922 -292.379,92.106 -292.258,92.009 -292.153,92.12 -289.953,94.46 -290.179,94.513 
			-287.979,87.896 -287.907,87.681 -287.849,87.897 -285.99,94.747 -287.979,87.935 -287.85,87.937 -289.922,94.595 -289.989,94.81 
			-290.148,94.647 -292.393,92.349 -292.168,92.362 -294.375,94.221 		"/>
	</g>
	<g>
		<polygon points="-294.621,54.584 -292.383,52.764 -292.258,52.662 -292.149,52.777 -289.944,55.114 -290.194,55.183 
			-287.916,45.702 -287.834,45.361 -287.771,45.706 -285.99,55.41 -287.917,45.733 -287.771,45.736 -289.907,55.25 -289.967,55.515 
			-290.157,55.319 -292.397,53.015 -292.164,53.028 -294.375,54.882 		"/>
	</g>
	<g>
		<g>
			<polygon points="-280.309,21.835 -282.789,20.311 -282.613,20.311 -284.857,21.644 -284.997,21.726 -285.069,21.583 
				-287.89,16.056 -287.707,16.054 -290.447,21.435 -290.485,21.509 -290.54,21.448 -292.6,19.147 -292.555,19.149 -295.74,21.878 
				-292.598,19.101 -292.574,19.079 -292.552,19.104 -290.456,21.372 -290.548,21.385 -287.891,15.962 -287.803,15.782 
				-287.708,15.961 -284.802,21.444 -285.014,21.386 -282.79,20.019 -282.703,19.964 -282.612,20.019 -280.109,21.505 			"/>
		</g>
	</g>
</g>
<g>
	<g>
		<polygon points="-292.198,-113.066 -284.875,-77.122 -285.117,-77.104 -284.767,-83.338 -284.734,-83.919 -284.569,-83.362 
			-276.297,-55.435 -284.763,-83.304 -284.565,-83.327 -284.873,-77.09 -284.919,-76.143 -285.115,-77.072 -292.688,-112.965 		"/>
	</g>
	<g>
		<polygon points="-295.246,-105.845 -293.328,-107.365 -293.18,-107.482 -293.057,-107.349 -291.21,-105.342 -291.438,-105.314 
			-289.653,-108.233 -289.585,-108.345 -289.525,-108.231 -287.867,-105.078 -289.654,-108.161 -289.526,-108.159 -291.189,-105.17 
			-291.28,-105.006 -291.417,-105.143 -293.346,-107.072 -293.074,-107.057 -294.928,-105.46 		"/>
	</g>
</g>
<text transform="matrix(1 0 0 1 -285.4688 -104.4639)" font-family="'EuclidFlexLight'" font-size="4.5576">5400at.</text>
<g>
	<polygon points="63.615,-136.351 74.837,-81.608 74.595,-81.59 75.116,-91.088 75.147,-91.669 75.313,-91.112 87.967,-48.583 
		75.12,-91.054 75.317,-91.077 74.839,-81.577 74.792,-80.628 74.597,-81.559 63.125,-136.249 	"/>
</g>
<g>
	<polygon points="59.183,-125.275 62.09,-127.612 62.236,-127.729 62.361,-127.596 65.195,-124.558 64.968,-124.53 67.653,-128.995 
		67.721,-129.106 67.781,-128.993 70.342,-124.208 67.652,-128.923 67.78,-128.921 65.216,-124.386 65.123,-124.222 
		64.988,-124.358 62.073,-127.319 62.344,-127.304 59.501,-124.891 	"/>
</g>
<text transform="matrix(1 0 0 1 71.502 -123.9609)" font-family="'EuclidFlexLight'" font-size="4.5576">6500at.</text>
<g>
	<g>
		<polygon points="-108.698,-105.589 -104.088,-82.727 -104.33,-82.708 -104.1,-86.671 -104.066,-87.252 -103.902,-86.695 
			-98.678,-68.929 -104.096,-86.637 -103.898,-86.66 -104.086,-82.695 -104.13,-81.747 -104.328,-82.677 -109.188,-105.487 		"/>
	</g>
	<g>
		<polygon points="-110.783,-101.049 -109.553,-102.002 -109.401,-102.119 -109.281,-101.985 -108.122,-100.695 -108.35,-100.668 
			-107.192,-102.512 -107.122,-102.623 -107.064,-102.51 -106.034,-100.492 -107.193,-102.439 -107.065,-102.438 -108.102,-100.523 
			-108.189,-100.36 -108.329,-100.496 -109.57,-101.709 -109.299,-101.693 -110.465,-100.664 		"/>
	</g>
</g>
<text transform="matrix(1 0 0 1 -103.8389 -100.1689)" font-family="'EuclidFlexLight'" font-size="4.5576">4200at.</text>
<linearGradient id="SVGID_1_" gradientUnits="userSpaceOnUse" x1="-117.002" y1="78.2588" x2="-95.4541" y2="78.2588">
	<stop  offset="0" style="stop-color:#FFD540"/>
	<stop  offset="0.2382" style="stop-color:#A56728"/>
	<stop  offset="0.6333" style="stop-color:#FFD84B"/>
	<stop  offset="1" style="stop-color:#A56728"/>
</linearGradient>
<polyline fill="none" stroke="url(#SVGID_1_)" stroke-miterlimit="10" points="-116.684,85.088 -111.332,80.667 -105.98,86.251 
	-100.838,70.275 -95.936,87.847 "/>
<g opacity="0.9">
	
		<image overflow="visible" width="225" height="225" id="BsF3LJ_1_" xlink:href="F264B904DE3D1EEE.jpg"  transform="matrix(0.0033 0 0 0.0943 70.9668 62.8857)">
	</image>
</g>
</svg>
